<svg xmlns:xlink="http://www.w3.org/1999/xlink" width="2361" xmlns="http://www.w3.org/2000/svg" height="2361" id="screenshot-4ffc6287-74af-80c1-8003-11f455f52218" viewBox="-1 -1 2361 2361" style="-webkit-print-color-adjust: exact;" fill="none" version="1.1"><g id="shape-4ffc6287-74af-80c1-8003-11f455f52218" rx="0" ry="0"><g id="shape-4ffc6287-74af-80c1-8003-11f455f52219"><g class="fills" id="fills-4ffc6287-74af-80c1-8003-11f455f52219"><rect rx="0" ry="0" x="1.1368683772161603e-13" y="0" transform="matrix(1.000000, 0.000000, 0.000000, 1.000000, 0.000000, 0.000000)" width="2358.9999999999995" height="2359" style="fill: rgb(177, 178, 181); fill-opacity: 0;"/></g><g id="strokes-4ffc6287-74af-80c1-8003-11f455f52219" class="strokes"><g class="stroke-shape"><rect rx="0" ry="0" x="1.1368683772161603e-13" y="0" transform="matrix(1.000000, 0.000000, 0.000000, 1.000000, 0.000000, 0.000000)" width="2358.9999999999995" height="2359" style="fill: none; stroke-width: 2; stroke: rgb(0, 0, 0); stroke-opacity: 1;"/></g></g></g><g id="shape-4ffc6287-74af-80c1-8003-11f455f5221a" rx="0" ry="0" style="fill: rgb(0, 0, 0);"><g id="shape-4ffc6287-74af-80c1-8003-11f455f5221b"><g class="fills" id="fills-4ffc6287-74af-80c1-8003-11f455f5221b"><path class="cls-1" rx="0" ry="0" d="M228.967,2164.868C200.638,2134.780,179.158,2094.778,164.526,2044.862C150.076,1996.261,142.423,1938.619,142.595,1879.685L142.595,1428.248C142.595,1353.374,136.230,1297.956,123.500,1261.994C110.770,1226.032,93.270,1208.076,71.000,1208.128L71.000,1141.949C93.236,1141.949,110.736,1123.994,123.500,1088.083C136.264,1052.172,142.629,996.729,142.595,921.752L142.595,470.315C142.428,411.377,150.087,353.734,164.543,305.138C179.185,255.222,200.666,215.220,228.984,185.132C257.302,155.044,290.545,140.000,328.714,140.000L385.983,140.000L385.983,195.020L376.427,195.020C351.611,195.020,331.888,214.476,317.256,253.388C302.625,292.300,295.304,349.924,295.292,426.260L295.292,833.681C295.292,971.707,269.843,1070.064,218.944,1128.752C197.297,1155.198,171.847,1170.614,142.595,1175.000C171.847,1179.412,197.302,1194.802,218.961,1221.171C269.860,1279.885,295.309,1378.242,295.309,1516.242L295.309,1923.740C295.309,2000.025,302.630,2057.649,317.273,2096.612C331.916,2135.575,351.639,2155.018,376.444,2154.941L386.000,2154.941L386.000,2210.000L328.714,2210.000C290.523,2210.000,257.274,2194.956,228.967,2164.868ZZ" style="fill: rgb(116, 112, 196); fill-opacity: 1;"/></g></g><g id="shape-4ffc6287-74af-80c1-8003-11f455f5221d"><g class="fills" id="fills-4ffc6287-74af-80c1-8003-11f455f5221d"><path class="cls-2" rx="0" ry="0" d="M1929.998,455.709C1928.074,667.679,1926.225,879.687,1923.659,1091.657C1921.962,1225.480,1912.793,1358.418,1869.025,1486.277C1813.183,1649.381,1707.008,1774.008,1578.269,1881.205C1460.096,1979.629,1329.660,2058.853,1195.526,2131.883C1189.135,2135.104,1182.127,2136.851,1175.000,2137.000L1175.000,223.000C1385.954,438.971,1643.620,480.796,1925.848,433.161C1927.621,442.665,1930.074,449.206,1929.998,455.709ZZ" style="fill: rgb(152, 149, 160); fill-opacity: 1;"/></g></g><g id="shape-4ffc6287-74af-80c1-8003-11f455f5221e"><g class="fills" id="fills-4ffc6287-74af-80c1-8003-11f455f5221e"><path class="cls-3" rx="0" ry="0" d="M1174.000,223.000L1174.000,2136.935C1169.093,2137.265,1164.182,2136.339,1159.714,2134.242C975.017,2033.435,796.652,1923.010,650.854,1766.029C509.806,1614.743,442.900,1431.522,433.175,1226.138C427.521,1107.248,429.896,987.974,428.086,868.891C426.051,733.149,423.299,597.407,421.000,461.665C421.000,453.662,422.018,445.659,422.885,433.308C703.436,479.710,960.693,441.234,1174.000,223.000ZZ" style="fill: rgb(212, 212, 210); fill-opacity: 1;"/></g></g><g id="shape-4ffc6287-74af-80c1-8003-11f526c9ddec"><g class="fills" id="fills-4ffc6287-74af-80c1-8003-11f526c9ddec"><path class="cls-1" rx="0" ry="0" d="M2124.033,2160.868C2152.362,2130.780,2173.842,2090.778,2188.474,2040.862C2202.924,1992.261,2210.577,1934.619,2210.405,1875.685L2210.405,1424.248C2210.405,1349.374,2216.770,1293.956,2229.500,1257.994C2242.230,1222.032,2259.730,1204.076,2282.000,1204.128L2282.000,1137.949C2259.764,1137.949,2242.264,1119.994,2229.500,1084.083C2216.736,1048.172,2210.371,992.729,2210.405,917.752L2210.405,466.315C2210.572,407.377,2202.913,349.734,2188.457,301.138C2173.815,251.222,2152.334,211.220,2124.016,181.132C2095.698,151.044,2062.455,136.000,2024.286,136.000L1967.017,136.000L1967.017,191.020L1976.573,191.020C2001.389,191.020,2021.112,210.476,2035.744,249.388C2050.375,288.300,2057.696,345.924,2057.708,422.260L2057.708,829.681C2057.708,967.707,2083.157,1066.064,2134.056,1124.752C2155.703,1151.198,2181.153,1166.614,2210.405,1171.000C2181.153,1175.412,2155.698,1190.802,2134.039,1217.171C2083.140,1275.885,2057.691,1374.242,2057.691,1512.242L2057.691,1919.740C2057.691,1996.025,2050.370,2053.649,2035.727,2092.612C2021.084,2131.575,2001.361,2151.018,1976.556,2150.941L1967.000,2150.941L1967.000,2206.000L2024.286,2206.000C2062.477,2206.000,2095.726,2190.956,2124.033,2160.868ZZ" style="fill: rgb(116, 112, 196); fill-opacity: 1;"/></g></g></g></g></svg>